<mxfile host="app.diagrams.net" agent="Mozilla/5.0 (Windows NT 10.0; Win64; x64) AppleWebKit/537.36 (KHTML, like Gecko) Chrome/128.0.0.0 Safari/537.36 Edg/128.0.0.0" version="24.7.16">
  <diagram name="第 1 页" id="CdubtGvuZ9AqiGPIA_u2">
    <mxGraphModel dx="1040" dy="596" grid="1" gridSize="10" guides="1" tooltips="1" connect="1" arrows="1" fold="1" page="1" pageScale="1" pageWidth="827" pageHeight="1169" math="0" shadow="0">
      <root>
        <mxCell id="0" />
        <mxCell id="1" parent="0" />
        <mxCell id="BGm6XfJXxmxyATdWrMGK-1" value="" style="shape=cube;whiteSpace=wrap;html=1;boundedLbl=1;backgroundOutline=1;darkOpacity=0.05;darkOpacity2=0.1;size=40;" vertex="1" parent="1">
          <mxGeometry x="320" y="220" width="230" height="90" as="geometry" />
        </mxCell>
        <mxCell id="BGm6XfJXxmxyATdWrMGK-2" value="" style="endArrow=none;html=1;rounded=0;strokeColor=#007FFF;dashed=1;" edge="1" parent="1">
          <mxGeometry width="50" height="50" relative="1" as="geometry">
            <mxPoint x="309" y="240" as="sourcePoint" />
            <mxPoint x="550" y="240" as="targetPoint" />
          </mxGeometry>
        </mxCell>
        <mxCell id="BGm6XfJXxmxyATdWrMGK-3" value="" style="endArrow=blockThin;html=1;rounded=0;strokeColor=#FF3333;strokeWidth=1;endFill=1;" edge="1" parent="1">
          <mxGeometry width="50" height="50" relative="1" as="geometry">
            <mxPoint x="430" y="240" as="sourcePoint" />
            <mxPoint x="430" y="170" as="targetPoint" />
          </mxGeometry>
        </mxCell>
        <mxCell id="BGm6XfJXxmxyATdWrMGK-6" value="" style="endArrow=none;html=1;rounded=0;strokeColor=#33FF33;dashed=1;" edge="1" parent="1">
          <mxGeometry width="50" height="50" relative="1" as="geometry">
            <mxPoint x="460" y="270" as="sourcePoint" />
            <mxPoint x="400" y="210" as="targetPoint" />
          </mxGeometry>
        </mxCell>
        <mxCell id="BGm6XfJXxmxyATdWrMGK-8" value="X方向" style="text;html=1;align=center;verticalAlign=middle;resizable=0;points=[];autosize=1;strokeColor=none;fillColor=none;fontColor=#007FFF;" vertex="1" parent="1">
          <mxGeometry x="540" y="220" width="60" height="30" as="geometry" />
        </mxCell>
        <mxCell id="BGm6XfJXxmxyATdWrMGK-9" value="Y方向" style="text;html=1;align=center;verticalAlign=middle;resizable=0;points=[];autosize=1;strokeColor=none;fillColor=none;fontColor=#33FF33;rotation=0;" vertex="1" parent="1">
          <mxGeometry x="354" y="190" width="60" height="30" as="geometry" />
        </mxCell>
        <mxCell id="BGm6XfJXxmxyATdWrMGK-10" value="&lt;font color=&quot;#ff3333&quot;&gt;Z- 方向&lt;/font&gt;" style="text;html=1;align=center;verticalAlign=middle;resizable=0;points=[];autosize=1;strokeColor=none;fillColor=none;fontColor=#007FFF;" vertex="1" parent="1">
          <mxGeometry x="430" y="170" width="60" height="30" as="geometry" />
        </mxCell>
        <mxCell id="BGm6XfJXxmxyATdWrMGK-18" value="" style="shape=cube;whiteSpace=wrap;html=1;boundedLbl=1;backgroundOutline=1;darkOpacity=0.05;darkOpacity2=0.1;size=42;" vertex="1" parent="1">
          <mxGeometry x="754" y="218" width="158" height="90" as="geometry" />
        </mxCell>
        <mxCell id="BGm6XfJXxmxyATdWrMGK-19" value="" style="endArrow=none;html=1;rounded=0;strokeColor=#007FFF;dashed=1;" edge="1" parent="1">
          <mxGeometry width="50" height="50" relative="1" as="geometry">
            <mxPoint x="713" y="238" as="sourcePoint" />
            <mxPoint x="954" y="238" as="targetPoint" />
          </mxGeometry>
        </mxCell>
        <mxCell id="BGm6XfJXxmxyATdWrMGK-20" value="" style="endArrow=blockThin;html=1;rounded=0;strokeColor=#FF3333;strokeWidth=1;endFill=1;" edge="1" parent="1">
          <mxGeometry width="50" height="50" relative="1" as="geometry">
            <mxPoint x="834" y="238" as="sourcePoint" />
            <mxPoint x="834" y="168" as="targetPoint" />
          </mxGeometry>
        </mxCell>
        <mxCell id="BGm6XfJXxmxyATdWrMGK-21" value="" style="endArrow=none;html=1;rounded=0;strokeColor=#007FFF;dashed=1;" edge="1" parent="1">
          <mxGeometry width="50" height="50" relative="1" as="geometry">
            <mxPoint x="864" y="268" as="sourcePoint" />
            <mxPoint x="804" y="208" as="targetPoint" />
          </mxGeometry>
        </mxCell>
        <mxCell id="BGm6XfJXxmxyATdWrMGK-22" value="X方向" style="text;html=1;align=center;verticalAlign=middle;resizable=0;points=[];autosize=1;strokeColor=none;fillColor=none;fontColor=#007FFF;" vertex="1" parent="1">
          <mxGeometry x="944" y="218" width="60" height="30" as="geometry" />
        </mxCell>
        <mxCell id="BGm6XfJXxmxyATdWrMGK-23" value="X方向" style="text;html=1;align=center;verticalAlign=middle;resizable=0;points=[];autosize=1;strokeColor=none;fillColor=none;fontColor=#007FFF;rotation=0;" vertex="1" parent="1">
          <mxGeometry x="758" y="188" width="60" height="30" as="geometry" />
        </mxCell>
        <mxCell id="BGm6XfJXxmxyATdWrMGK-24" value="&lt;font color=&quot;#ff3333&quot;&gt;Z- 方向&lt;/font&gt;" style="text;html=1;align=center;verticalAlign=middle;resizable=0;points=[];autosize=1;strokeColor=none;fillColor=none;fontColor=#007FFF;" vertex="1" parent="1">
          <mxGeometry x="834" y="168" width="60" height="30" as="geometry" />
        </mxCell>
        <mxCell id="BGm6XfJXxmxyATdWrMGK-25" value="&lt;font style=&quot;font-size: 16px;&quot; color=&quot;#000000&quot;&gt;上表面为长方形&lt;/font&gt;" style="text;html=1;align=center;verticalAlign=middle;resizable=0;points=[];autosize=1;strokeColor=none;fillColor=none;fontColor=#007FFF;" vertex="1" parent="1">
          <mxGeometry x="370" y="340" width="140" height="30" as="geometry" />
        </mxCell>
        <mxCell id="BGm6XfJXxmxyATdWrMGK-26" value="&lt;font style=&quot;font-size: 16px;&quot; color=&quot;#000000&quot;&gt;上表面为正方形&lt;/font&gt;" style="text;html=1;align=center;verticalAlign=middle;resizable=0;points=[];autosize=1;strokeColor=none;fillColor=none;fontColor=#007FFF;" vertex="1" parent="1">
          <mxGeometry x="772" y="340" width="140" height="30" as="geometry" />
        </mxCell>
      </root>
    </mxGraphModel>
  </diagram>
</mxfile>
